<?xml version="1.0" encoding="UTF-8" standalone="no"?>
<svg
   width="512"
   height="512"
   version="1.1"
   viewBox="0 0 512 512.00004"
   id="svg73"
   sodipodi:docname="favicon.svg"
   inkscape:version="1.4.2 (ebf0e940, 2025-05-08)"
   inkscape:export-filename="favicon.png"
   inkscape:export-xdpi="96"
   inkscape:export-ydpi="96"
   xmlns:inkscape="http://www.inkscape.org/namespaces/inkscape"
   xmlns:sodipodi="http://sodipodi.sourceforge.net/DTD/sodipodi-0.dtd"
   xmlns="http://www.w3.org/2000/svg"
   xmlns:svg="http://www.w3.org/2000/svg">
  <sodipodi:namedview
     id="namedview73"
     pagecolor="#ffffff"
     bordercolor="#000000"
     borderopacity="0.25"
     inkscape:showpageshadow="2"
     inkscape:pageopacity="0.0"
     inkscape:pagecheckerboard="0"
     inkscape:deskcolor="#d1d1d1"
     inkscape:zoom="0.40105896"
     inkscape:cx="-193.23842"
     inkscape:cy="441.33162"
     inkscape:window-width="2056"
     inkscape:window-height="1147"
     inkscape:window-x="0"
     inkscape:window-y="44"
     inkscape:window-maximized="1"
     inkscape:current-layer="svg73" />
  <defs
     id="defs3">
    <linearGradient
       id="gradient_0"
       x1="113.37"
       x2="136.06"
       y1="671.22998"
       y2="804.73999"
       gradientTransform="matrix(4,0,0,4,-107.07,-89.885)"
       gradientUnits="userSpaceOnUse">
      <stop
         stop-color="#D95A00"
         offset="0"
         id="stop2" />
      <stop
         stop-color="#EC7700"
         offset="1"
         id="stop3" />
    </linearGradient>
  </defs>
  <defs
     id="defs6">
    <linearGradient
       id="gradient_1"
       x1="331.31"
       x2="347.85999"
       y1="662.84998"
       y2="557.59003"
       gradientTransform="matrix(4,0,0,4,-107.07,-89.885)"
       gradientUnits="userSpaceOnUse">
      <stop
         stop-color="#DA5A00"
         offset="0"
         id="stop5" />
      <stop
         stop-color="#EA7400"
         offset="1"
         id="stop6" />
    </linearGradient>
  </defs>
  <defs
     id="defs40">
    <linearGradient
       id="gradient_2"
       x1="520.17999"
       x2="576.31"
       y1="519.12"
       y2="525.26001"
       gradientTransform="matrix(4,0,0,4,-107.07,-89.885)"
       gradientUnits="userSpaceOnUse">
      <stop
         stop-color="#DE6300"
         offset="0"
         id="stop39" />
      <stop
         stop-color="#EF7D00"
         offset="1"
         id="stop40" />
    </linearGradient>
  </defs>
  <defs
     id="defs48">
    <linearGradient
       id="gradient_3"
       x1="332.85001"
       x2="380.19"
       y1="910.23999"
       y2="997.57001"
       gradientTransform="matrix(4,0,0,4,-107.07,-89.885)"
       gradientUnits="userSpaceOnUse">
      <stop
         stop-color="#D05300"
         offset="0"
         id="stop47" />
      <stop
         stop-color="#E58100"
         offset="1"
         id="stop48" />
    </linearGradient>
  </defs>
  <defs
     id="defs51">
    <linearGradient
       id="gradient_4"
       x1="467.07001"
       x2="584.62"
       y1="904.47998"
       y2="880.10999"
       gradientTransform="matrix(4,0,0,4,-107.07,-89.885)"
       gradientUnits="userSpaceOnUse">
      <stop
         stop-color="#D75A00"
         offset="0"
         id="stop50" />
      <stop
         stop-color="#E87800"
         offset="1"
         id="stop51" />
    </linearGradient>
  </defs>
  <defs
     id="defs54">
    <linearGradient
       id="gradient_5"
       x1="304.57999"
       x2="283.78"
       y1="484.37"
       y2="547.97998"
       gradientTransform="matrix(4,0,0,4,-107.07,-89.885)"
       gradientUnits="userSpaceOnUse">
      <stop
         stop-color="#D95D00"
         offset="0"
         id="stop53" />
      <stop
         stop-color="#F28000"
         offset="1"
         id="stop54" />
    </linearGradient>
  </defs>
  <defs
     id="defs70">
    <linearGradient
       id="gradient_6"
       x1="184.96001"
       x2="165.17"
       y1="896.65002"
       y2="836.29999"
       gradientTransform="matrix(4,0,0,4,-107.07,-89.885)"
       gradientUnits="userSpaceOnUse">
      <stop
         stop-color="#DC6800"
         offset="0"
         id="stop69" />
      <stop
         stop-color="#ED8500"
         offset="1"
         id="stop70" />
    </linearGradient>
  </defs>
  <g
     id="g73"
     transform="matrix(0.43116359,0,0,0.43116359,6.4881586e-5,1.9220762e-6)">
    <path
       d="m 289.35767,621.43468 c -41.724,-89.768 -55.224,-169.36 -40.272,-267.44 4.948,-32.448 11.524,-63.876 22.868,-94.78 27.58,-75.128 69.992,-100.26 139.81,-132.3 114.76,-52.660003 251.34,-105.120003 377.1,-58.420003 32.2,11.956 66.252,33.040003 81.172,65.268003 10.048,21.7 10.548,45.964 9.056,69.4 -41.096,-5.184 -137.54,-13.568 -171.07,12.108 -6.376,4.88 -9.98,11.172 -10.72,19.184 -0.512,5.54 0.744,10.484 4.332,14.816 3.748,4.528 9.572,8.308 14.448,11.564 l 2.768,0.068 c 21.308,0.42 42.632,-2.52 63.884,-3.792 39.288,-2.36 87.04,1.312 123.35,17.536 24.9,42.856 24.56,91.984 16.484,139.57 -18.824,-5.328 -37.54,-10.6 -56.912,-13.604 -27.364,-4.248 -116.53,-10.004 -140.52,4.292 -5.776,3.484 -9.936,9.116 -11.568,15.66 -1.736,7.004 -0.592,14.728 4.056,20.412 13.508,16.512 112.6,13.988 140.07,18.932 24.104,4.34 46.988,13.216 69.816,21.84 16.316,44.14 25.572,88.064 5.056,132.78 -15.396,33.564 -43.42,55.876 -77.664,68.34 -48.376,17.604 -114.34,23.868 -163.98,8.144 -14.956,-4.736 -33.604,-15.016 -49.072,-15.432 -8.92,-0.24 -20.08,6.388 -23.348,15 -3.436,9.064 2.424,23.292 5.956,31.72 6.952,16.572 17.188,32.1 25.52,48.032 10.068,19.248 18.424,39.8 25.692,60.256 28.548,80.356 46.328,239.06002 -38.832,292.80002 -19.092,12.052 -43.768,17.236 -65.888,11.68 -16.028,-4.024 -28.576,-14.06 -36.852,-28.264 -26.384,-45.284 -10.424,-119.03002 -16.28,-170.40002 -6.02,-52.864 -23.012,-101.5 -46.46,-148.99 -15.016,-26.38 -32.792,-50.808 -54.332,-72.284 -28.572,-28.488 -58.492,-46.432 -99.804,-46.256 -9.736,-15.556 -19.792,-30.952 -27.872,-47.452 z"
       fill="#feac55"
       id="path27"
       style="display:inline;fill:#feac55;fill-opacity:1;stroke:#4e2a02;stroke-width:100;stroke-linecap:butt;stroke-linejoin:round;stroke-dasharray:none;stroke-opacity:1;paint-order:markers stroke fill" />
    <path
       d="m 289.35767,621.43468 c 56.84,-2.664 106.83,3.928 150.7,43.392 21.068,18.952 39.52,45.096 40.268,74.32 0.404,15.792 -4.1,33.268 -8.964,48.28 -15.016,-26.38 -32.792,-50.808 -54.332,-72.284 -28.572,-28.488 -58.492,-46.432 -99.804,-46.256 -9.736,-15.556 -19.792,-30.952 -27.872,-47.452 z"
       fill="#f6940d"
       id="path28"
       style="display:inline;fill:#feac55;fill-opacity:1;stroke:none;stroke-width:100;stroke-linecap:round;stroke-dasharray:none;stroke-opacity:1;paint-order:markers stroke fill" />
  </g>
</svg>
