<?xml version="1.0" encoding="UTF-8"?>
<svg width="3768.7" height="3919.4" version="1.1" viewBox="0 0 3768.7 3919.4" xmlns="http://www.w3.org/2000/svg">
 <path d="m2002.4 0.4331c8.724-0.4188 17.544-1.0424 26.128 0.9536 11.536 2.682 21.336 9.6876 27.276 19.97 19.692 34.103 8.656 97.35-1.952 133.28 14.928-3.9444 29.396-8.03 45.004-7.5688 17.568 0.5196 33.82 6.6 45.632 19.972 19.672 22.264 23.748 62.409 21.424 91.1-8.116 100.31-37.852 148.99-114.42 213.95 17.784 22.816 31.78 46.476 41.22 73.936 29.46 85.708 18.736 179.36-20.1 259.74 16.052 97.264 24.112 196.78 33.408 294.91 15.484 163.52 34.296 327.54 12.284 491.4-4.752 34.968-11.92 69.564-21.46 103.54-5.996 20.96-13.516 41.316-18.532 62.572 60.192-14.9 119.69-32.468 179.43-49.076l316.11-87.296c27.304-7.384 54.956-14.836 82.716-20.264 36.164-7.072 74.168-11.844 109.2-23.224 15.68-20.612 26.44-35.112 51.904-44.096 56.312-19.868 176.28-47.276 234.46-40.672 10.568 1.2 19.96 4.724 29.492 9.26 21.24-12.492 42.668-24.664 64.276-36.516 119.98-64.92 282.72-106.93 416.75-65.908 60.548 18.528 129.65 73.312 137.4 139.94 2.66 22.852-4.336 47.7 0.776 69.764 2.448 10.56 23.304 28.548 29.588 40.86 28.052 54.964 34.048 139.96 15.376 198.46 14.14 28.608 22.756 59.204 22.94 91.324 0.308 53.732-12.472 107.62-51.176 146.62-64.86 65.356-156.49 66.996-242.06 67.148 20.412 47.468 35.768 93.112 43 144.51 10.244 72.836 8.312 162.86-38.38 224.1-31.212 40.944-69.964 65.176-121.34 71.652-25.496 3.212-55.788-7.116-75.66-22.78-77.288-60.932-51.108-149.82-62.068-234.16-7.552-58.092-29.104-127.34-68.188-172.29-12.604-14.5-27.676-25.904-42.824-37.592-23.248 27.7-59.388 51.76-91.856 67.316-52.844 25.32-105.22 32.4-161.15 12.592-206.72 82.868-408.69 177.48-617.36 255.5 0.056 0.552 0.116 1.104 0.164 1.66 6.872 80.96 4.116 163 5.212 244.16 0.456 33.82 3.672 67.72 3.78 101.44 0.144 43.172-2.972 86.296-3.544 129.46-0.328 24.888 2 49.792 1.5 74.636-0.696 34.408-3.172 68.848-4.184 103.27l-6.912 248.77c-2.08 60.396-5.38 121-6.616 181.37-0.892 43.528 1.272 88.396-5.344 131.51-2.664 17.384-7.824 27.968-19.028 41.088-35.788 33.456-114.43 75.776-161.26 95.064-31.78 13.088-66.052 22.292-98.964 32.352-84.552 25.844-169.65 50.348-257.94 59.544-40.644 4.228-83.76 7.508-117.14-19.64-51.82 33.228-140.8 30.348-201.05 31.228-198.2 2.96-445.62-48.072-629.35-121.73-35.92-14.396-80.36-29.456-108-57.304-47.072-47.416-29.852-145.75-30.332-206.99-38.784-17.568-95.012-27.036-124.88-58.688-6.684-7.084-11.784-16.376-16.904-24.648-47.992-14.212-94.644-32.612-139.42-54.984-122.4-59.716-253.59-156.26-298.82-289.74-65.107-192.12 37.618-422.58 122.54-592.88 40.091-80.404 87.989-159.89 139.36-233.64 134.71-193.43 276.15-312.94 501.14-388.19 16.828-59.66 40.972-109.73 83.14-155.96-10.18-26.956-23.532-52.856-34.568-79.504-14.124-34.724-25.484-70.512-33.976-107.02-39.076 9.968-80.428 14.668-120.17 5.44-59.576-13.832-110.54-54.152-142.56-105.58-42.076-67.588-62.344-158.64-43.212-236.88 10.496-42.92 34.116-84 72.656-107.2-7.172-20.772-15.772-41.032-22.984-61.796-50.548-145.6-89.388-324.66-18.092-469.52 51.592-104.83 134.66-166.67 243.27-203.62 23.56-36.676 41.892-73.595 69.66-108 48.516-60.11 111.96-111.1 180.28-147.18 253.97-134.12 493.85-19.522 759.44-47.534 49.664-5.1356 98.456-16.68 145.16-34.346 25.96-9.9136 51.316-22.177 77.84-30.461z" fill="#4e2a02" stroke-width="4"/>
 <path d="m595.89 2045.8c64.784-42.032 130.64-72.872 203.96-96.864 30.86 55.24 64.028 109.16 99.412 161.61 41.408 58.752 113.21 154.02 169.89 196.89 9.56 5.356 17.7 8.332 28.64 5.008 5.932-1.804 11.908-4.612 17.424-7.432 7.572-9.964 22.58-19.736 32.26-28.428 53.564-48.128 118.14-110.61 187.34-133.23 8.54 11.944 18.864 20.488 30.216 29.58 30.58 16.844 63.744 55.596 93.784 78.292 21.928 16.568 48.844 28.628 69.516 46.432 10.856 85.228 5.048 173.73 6 259.55 0.972 64.324-0.072 128.9-1.024 193.23l-0.38 31.472c-80.22 5.664-177.22 2.336-246.59 48.68-29.832 19.932-41.756 45.54-48.592 79.452-85.744 0.68-164.58 5.268-242.78 44.78-40.048 20.236-77.968 42.708-120.14 58.648-54.104-60.988-112.32-75.356-183.94-105.88 11.912-24.7 23.372-49.98 36.856-73.864 16.552-29.324 35.052-57.412 50.412-87.424 19.664-41.788 73.236-144.8 77.148-184.42-10.028-9.036-17.776-10.848-30.884-12.816-5.14 3.36-9.664 6.772-13.332 11.772-17.62 24.016-30.884 53.524-44.96 79.864-14.688 27.476-30.856 54.972-44.1 83.136-26.368 53.276-60.048 103.82-80.964 159.57-22.02-6.416-43.224-18.4-64.292-27.508-16.512-7.136-35.384-12.744-51.1-21.236-28.96-10.228-120.51-47.868-145.37-34.048-6.872 3.82-12.176 12.028-13.328 19.724-1.12 7.508 0.876 14.668 5.56 20.624 14.688 18.672 95.716 34.328 122.29 43.648 57.816 20.284 116.43 45.576 172.08 71.252-34.076 27.424-64.572 56.692-91.948 90.852-40.524 53.056-66.084 111.47-88.836 173.7-18.008 56.388-24.852 115.77-27.348 174.69-138.98-61.932-243.4-115.7-340.85-236.59-36.837-46.128-50.843-108.43-53.788-166-8.28-90.352 25.776-198.21 60.132-281.4 29.68-69.82 59.858-141.21 96.992-207.46 30.019-65.036 80.062-144.22 122.02-202 45.668-71.04 109.72-141.23 173.69-196.48 24.988-21.544 51.796-40.672 78.944-59.372z" fill="#e56e00" stroke-width="4"/>
 <defs>
  <linearGradient id="gradient_0" x1="113.37" x2="136.06" y1="671.23" y2="804.74" gradientTransform="matrix(4 0 0 4 -107.07 -89.885)" gradientUnits="userSpaceOnUse">
   <stop stop-color="#D95A00" offset="0"/>
   <stop stop-color="#EC7700" offset="1"/>
  </linearGradient>
 </defs>
 <g stroke-width="4">
  <path d="m398.79 2584.7c63.14 30.472 129.3 56.072 193.67 83.852-16.46 28.2-67.44 119.93-73.644 147.26-0.86 3.796-0.784 5.744-3.216 9.084-0.532 0.736-1.184 1.376-1.78 2.064 5.064 0.924 7.052 2.968 10.556 6.444 0.428 0.424 0.852 0.864 1.276 1.296-28.96-10.228-120.51-47.868-145.37-34.048-6.872 3.82-12.176 12.028-13.328 19.724-1.12 7.508 0.876 14.668 5.56 20.624 14.688 18.672 95.716 34.328 122.29 43.648 57.816 20.284 116.43 45.576 172.08 71.252-34.076 27.424-64.572 56.692-91.948 90.852-40.524 53.056-66.084 111.47-88.836 173.7-18.008 56.388-24.852 115.77-27.348 174.69-138.98-61.932-243.4-115.7-340.85-236.59-36.837-46.128-50.843-108.43-53.788-166 25.341 9.044 83.404 42.74 105.16 59.976 11.808-14.732 29.637-65.3 38.321-85.244 18.156-41.86 37.123-83.364 56.892-124.48 13.923-9.876 25.829-56.528 34.511-74.088 30.02-60.704 62.948-127.52 99.8-184.01z" fill="url(#gradient_0)"/>
  <path d="m64.107 2992.6c25.341 9.044 83.404 42.74 105.16 59.976l-0.3924 0.968c2.0596 0.484 161.58 89.928 169.48 95.068l1.384 3.068c46.672 24.464 96.908 50.588 146.36 68.828-18.008 56.388-24.852 115.77-27.348 174.69-138.98-61.932-243.4-115.7-340.85-236.59-36.837-46.128-50.843-108.43-53.788-166z" fill="#e56e00"/>
  <path d="m424.85 2977.2c21.876 9.328 42.828 21.468 64.304 31.772 28.124 13.496 57.14 25.436 85.784 37.796-40.524 53.056-66.084 111.47-88.836 173.7-49.448-18.24-99.684-44.364-146.36-68.828 24.932-59.16 51-119.81 85.104-174.44z" fill="#f6940d"/>
 </g>
 <defs>
  <linearGradient id="gradient_1" x1="331.31" x2="347.86" y1="662.85" y2="557.59" gradientTransform="matrix(4 0 0 4 -107.07 -89.885)" gradientUnits="userSpaceOnUse">
   <stop stop-color="#DA5A00" offset="0"/>
   <stop stop-color="#EA7400" offset="1"/>
  </linearGradient>
 </defs>
 <path d="m1334.8 2143.4c8.54 11.944 18.864 20.488 30.216 29.58-3.9 14.292-4.236 120.79-1.12 137.07 5.532 75.496 1.136 159.49 0.764 235.87-78.204 3.592-156.48 5.5-234.76 5.724-2.588-47.944-4.32-95.928-5.196-143.93-0.64-28.612 0.44-59.376-3.724-87.692-1-6.808-1.288-9.836-5.772-14.968 7.572-9.964 22.58-19.736 32.26-28.428 53.564-48.128 118.14-110.61 187.34-133.23z" fill="url(#gradient_1)" stroke-width="4"/>
 <g fill="#f6940d" stroke-width="4">
  <path d="m124.24 2711.2c55.474 23.476 109.96 49.212 163.33 77.152-7.5644 18.22-15.261 36.388-23.089 54.496-19.769 41.12-38.736 82.624-56.892 124.48-8.6836 19.944-26.512 70.512-38.321 85.244-21.754-17.236-79.817-50.932-105.16-59.976-8.28-90.352 25.776-198.21 60.132-281.4z"/>
  <path d="m343.25 2301.7c13.844 12.228 35.116 20.564 51.64 28.84 39.232 19.648 80.344 37.424 117.98 59.896-37.464 64.216-72.628 132.2-114.7 193.48-58.52-27.34-117.76-54.364-176.94-80.216 30.019-65.036 80.062-144.22 122.02-202z"/>
  <path d="m1365.1 2546.3c20.8 0.068 158.71-9.384 166.97-3.808l2.284 14.772c0.972 64.324-0.072 128.9-1.024 193.23-38.912 0.24-77.852 2.468-116.74 3.904-15.892 0.588-35.584 3.516-50.944 0.584 2.488-69.324 0.028-139.3-0.552-208.68z"/>
  <path d="m705.1 2490c40.22 14.524 81.396 38.8 119.3 59.1-5.14 3.36-9.664 6.772-13.332 11.772-17.62 24.016-30.884 53.524-44.96 79.864-14.688 27.476-30.856 54.972-44.1 83.136-17.096-9.956-37.652-16.188-56.024-23.508-24.612-9.748-48.864-20.376-72.708-31.864 13.02-19.812 24.516-40.856 37.328-60.888 24.928-38.984 51.216-77.644 74.5-117.61z"/>
  <path d="m926.31 2321.9c-4.856-22.84-6.644-47.156-10.524-70.3-6.908-41.184-17.128-84.912-18.932-126.64-0.232-5.392 0.28-9.416 2.396-14.36 41.408 58.752 113.21 154.02 169.89 196.89-17.044 9.08-114.98 9.52-142.83 14.416z"/>
  <path d="m595.89 2045.8c6.308 26.032 67.112 61.888 88.376 82.792-5.672 14.72-24.436 58.296-37.716 64.872-43.88-28.648-87.212-57.468-129.6-88.292 24.988-21.544 51.796-40.672 78.944-59.372z"/>
  <path d="m1365 2173c30.58 16.844 63.744 55.596 93.784 78.292 21.928 16.568 48.844 28.628 69.516 46.432-57.012 15.536-106.39 9.212-164.42 12.348-3.116-16.284-2.78-122.78 1.12-137.07z"/>
 </g>
 <g stroke-width="4">
  <path d="m640.43 2202.2 6.572-5.488c18.128 2.464 64.14 38.04 81.796 48.628 12.916 7.74 26.452 14.468 39.952 21.12 16.352 29.496 23.22 67.932 14.264 101.28-2.568 9.556-6.944 18.488-11.992 26.956-6.584 11.052-62.228 91.376-66.68 93.632-0.512 0.26-1.084 0.372-1.628 0.556-19.38-11.328-40.62-20.032-60.836-29.808-44.18-21.368-87.328-42.676-128.88-68.932 39.78-64.372 84.348-125.77 127.44-187.95z" fill="#dc6000"/>
  <path d="m943.15 2557.9c25.184-3.436 51.512-3.1 76.924-3.7l110.29-2.284c3.052 69.572 6.452 138.21 4.404 207.91-30.888 5.616-66.324 1.844-97.688 1.328-30.492-0.504-62.288 0.832-92.54-3.136 0.108-66.684-2.452-133.46-1.388-200.12z" fill="#f6940d"/>
  <path d="m617.59 1082c-39.372-150.22-104.93-306.28-48.912-461.88 33.18-92.16 106.21-149.74 193.91-187 18.792-7.984 47.472-13.052 62.804-26.596 13.256-11.716 27.796-54.232 37.256-71.184 25.632-45.934 64.152-86.272 105.97-117.84 54.132-40.814 115.25-71.418 180.36-90.308 174.05-49.406 327.12 5.9228 500.74 10.542 122.96 3.2708 238.91-20.917 350.2-73.011 1.636 40.597-5.42 81.075-20.692 118.73-5.636 13.524-35.092 57.943-34.232 67.078 3.224 4.9572 5.204 7.2452 10.872 9.3604 53.352 19.895 91.388-32.146 134-52.121 0.72-0.3388 1.456-0.6524 2.184-0.9784 3.184 7.3452 6.1 14.689 7.928 22.506 11.152 47.688-7.212 95.765-32.492 135.7-31.824 50.284-76.268 82.432-126.99 111.91-51.684 30.04-107.92 45.944-167.2 52.192-94.64 9.976-187.62-5.856-277.89-33.872-69.788-21.664-137.77-46.868-209.91-60.124-76.304-14.036-154.64-12.788-230.45 3.676-23.872 5.604-47.352 12.748-70.292 21.392-29.188 11.26-118.67 52.372-133.94 78.528-4.44 7.612-5.912 17.08-3.06 25.5 4.48 13.22 19.352 21.628 26.42 33.768 14.616 25.104 17.716 82.56 19.448 112.95 2.648 46.424 6.544 99.416-1.468 145.39-8.192 47.028-24.24 92.312-31.98 139.43-17.152 104.4-6.816 231.28 21.056 332.96 24.324 88.716 79.98 166.02 160.47 211.72 25.492 14.476 108.74 59.052 135.3 50.436 19.508-6.328 15.66-39.052 25.852-58.204 19.968-37.508 59.724-75.536 101.48-87.092 0.68-0.188 1.376-0.316 2.068-0.472 85.044-32.32 165.65 8.012 246.93 31.348 36.828 10.576 75.228 17.628 113.65 17.444 17.088-0.072 34.108-2.184 50.692-6.296 34.016-8.6 77.64-32.408 112.49-17.46 3.044 1.308 3.1 1.432 5.54 2.908 35.728 16.456 56.276 46.444 71.104 81.528 5.1 12.076 9.36 24.628 17.584 35 12.704 2.284 23.452 4.24 36.164 0.3 54.112-16.768 87.08-87.316 110.61-133.4l-0.02 6.928c-1.296 152.31-37.808 317.01-150.74 426.71-106.48 103.43-256.64 143.94-402.45 141.14-188.6-3.62-380.36-88.728-510.89-225.05-100.01-104.44-150.64-247.25-176.84-387.09-5.936-31.7-8.744-64.116-14.16-95.96-4.06-23.88-8.144-48.06-13.552-71.68-2.436-10.624-8.04-21.54-8.584-32.344-0.772-15.372 13.792-29.084 13.524-45.696-0.248-15.668-11.472-30.292-21.964-40.932-43.952-44.588-108.86-50.432-167.89-50.504z" fill="#77460f"/>
  <path d="m1327 1495.8c2.412-0.18 4.824-0.304 7.244-0.364 23.132-0.468 24.908 20.42 34.128 36.364 4.792 8.28 11.952 15.984 18.832 22.632 14.104 13.624 36.884 32.024 55.608 38.124 54.36 17.708 120.66 5.608 177.3 7.432 28.712 0.924 57.288 4.872 85.948 6.768 23.632 1.564 47.492 0.968 71.164 0.516 6.248 5.484 12.656 10.228 15.38 18.364 2.54 7.596 1.384 16.432-2.884 23.172-7.536 11.912-19.632 16.428-32.672 19.688-48.584 2.104-95.808-13.812-144.36-15.176-66.44-1.868-151.51 18.72-213.86-2.72-37.128-12.768-78.812-47.704-95.264-83.632-6.012-13.128-10.888-32.832-5.16-46.824 5.22-12.752 16.704-18.888 28.588-24.344z" fill="#4e2a02"/>
  <path d="m921.95 561.3c8.32-7.4 17.048-13.712 26.464-19.632 114.08-71.712 264.83-63.216 390.54-34.06 27.152 5.028 53.396 14.5 79.392 23.644 17.028 5.428 38.34 9.668 53.94 18.012 137.09 34.8 238 50.4 378.67 21.712 27.82-5.672 56.388-11.32 83.38-20.204 6.292 15.04 12.832 30.024 18.412 45.344 40.936 108.72 58.928 228 74.684 342.66 14.396 104.74 26.456 212.52 26.884 318.41 0.412 102.89-21.012 202.91-95.72 278.11-17.42-55.56-52.012-87.076-100.73-116.9 2.4-3.812 4.736-7.668 7-11.564 44.68-76.604 17.284-147.17-48.968-199.22-41.616-32.692-90.256-51.744-118.24-99.364-14.256-24.264-15.116-46.808-16.24-73.84-0.26-6.236 0.072-13.324-1.724-19.292-1.852-6.172-5.832-11.572-11.624-14.524-6.88-3.504-15.232-2.956-22.284-0.256-10.468 4.004-18.08 12.352-22.468 22.52-7.744 17.952-4.436 39.576-0.916 58.216 25.936 137.3 168.45 147.11 196.24 227.29 6.72 19.392 5.084 38.832-4.124 57.116-12.76 25.34-36.876 43.84-62.9 54.144-113.14 44.784-223.45-23.524-333.1-41.5-42.088-6.896-85.976-6.192-126.75 7.208-65.944 21.668-113.42 67.304-144.13 128.48-19.668-4.58-39.476-13.204-57.284-22.628-161.57-85.52-202.39-290.6-178.14-458.12 9.824-67.86 33.728-132.87 39.328-201.38 7.22-91.192-2.82-182.92-29.6-270.39z" fill="#feac55"/>
  <path d="m1339 507.61c27.152 5.028 53.396 14.5 79.392 23.644 17.028 5.428 38.34 9.668 53.94 18.012 137.09 34.8 238 50.4 378.67 21.712 27.82-5.672 56.388-11.32 83.38-20.204 6.292 15.04 12.832 30.024 18.412 45.344-12.06 4.268-24.256 8.136-36.572 11.6-130.82 35.612-269.66 27.956-395.77-21.824-20.56-8.004-42.78-16.156-61.928-27.076-23.584-10.18-47.768-18.992-71.772-28.124-15.588-5.968-35.128-12.164-47.752-23.084z" fill="#f6940d"/>
 </g>
 <g fill="#4e2a02" stroke-width="4">
  <path d="m1283 842.94c2.08-0.144 4.164-0.264 6.248-0.356 49.624-2.428 118.25 4.068 156.37 40.228 9.628 9.132 15.808 20.664 15.416 34.168-0.3 10.272-4.536 19.448-12.448 26.04-31.468 26.228-67.288 2.008-100.06-7.276-15.652-4.432-31.172-5.808-47.348-6.988-17.004 0.028-37.028 0.7-53.084 6.684-26.16 9.748-48.052 37.532-75.848 40.976-7.196 0.892-15.164-0.34-20.504-5.66-6.168-6.152-7.832-15.86-8.404-24.172-1.24-18.004 9.232-34.468 20.408-47.692 31.512-37.284 71.572-52.068 119.26-55.952z"/>
  <path d="m1816.8 966.52c10.948 0.252 21.212 2.848 30.792 8.204 20.896 11.68 33.764 32.836 39.636 55.584 6.92 26.804 3.404 55.408-11.228 79.088-12.868 20.832-31.048 32.644-54.472 38.58-12.816 0.836-24.36-0.624-35.968-6.528-17.628-8.964-29.552-25.44-35.112-44.184-8.392-28.3-5.18-67.928 10.08-93.388 13.048-21.772 32.528-31.484 56.272-37.356z"/>
  <path d="m1810 728.72c8.212-0.916 16.736-0.988 24.992-0.696 33.18 1.18 71.888 19.42 93.712 44.452 11.104 12.74 17.684 29.368 15.972 46.416-0.712 7.1-3.964 14.112-10.028 18.204-23.48 15.844-48.108-9.584-68.84-18.516-8.156-3.516-16.964-4.8-25.68-6.192-55.188-2.596-52.492 14.264-96.336 28.136-9.188 2.908-20.676 3.828-29.144-1.656-8.26-5.348-12.412-16.384-13.676-25.732-1.464-10.812 2.696-20.416 9.324-28.796 23.788-30.064 62.212-50.352 99.704-55.62z"/>
  <path d="m1302.3 1064.7c2.22-0.288 4.368-0.544 6.604-0.66 40.512-2.144 89.78 6.692 120.62 35.132 9.956 9.184 15.304 18.744 15.628 32.44 0.18 7.46-0.796 16.108-6.8 21.332-20.22 17.592-61.184-14.896-81.08-20.544-14.248-4.044-30.78-2.544-45.38-1.936-39.444 7.064-56.456 36.452-85.276 43.488-9.992 2.436-22.804 2.192-31.536-3.872-5.592-3.88-8.456-9.728-9.388-16.36-1.692-12.056 3.608-24.24 10.608-33.76 25.048-34.068 65.692-49.164 106-55.26z"/>
 </g>
 <g stroke-width="4">
  <path d="m1289 2948.6c0.308-20.884 1.336-43.08 15.9-59.6 30.816-34.956 121.61-38.888 165.3-42.708 98.016-8.568 385.9-26.516 461.94 40.68 15.376 13.584 17.26 29.42 18.688 48.628 1.368 201.18-19.548 401.15-26.472 601.94-91.052 79.44-260.17 86.372-376.5 78.352-105.29-7.256-179.68-27.924-259.76-99.296-11.668-142.63-3.056-286.52-1.144-429.5 0.416-31.088-3.256-112.87 2.036-138.5z" fill="#7a6645"/>
  <path d="m1289 2948.6c0.308-20.884 1.336-43.08 15.9-59.6 30.816-34.956 121.61-38.888 165.3-42.708 98.016-8.568 385.9-26.516 461.94 40.68 15.376 13.584 17.26 29.42 18.688 48.628-44.592 3.076-53.668 31.452-97.184 39.916-47.36 9.212-96.88 13.9-145.01 16.176-82.456 3.9-165.29-0.348-247.53-6.568-31.316-2.368-64.256-3.28-94.904-10.22-18.784-4.252-41-11.516-55.484-24.708-4.212-3.832-11.112-15.912-15.512-16.944-1.892 5.236-3.86 10.3-6.208 15.348z" fill="#957e5d"/>
  <path d="m1558.4 2877c82.992-6.932 249.93 3.412 326.57 36.404 6.836 2.94 10.764 5.7 13.628 12.628-0.904 1.016-1.652 2.192-2.708 3.052-23.696 19.288-168.17 31.784-203.48 33.56-65.068 8.216-275.33 3.068-331.74-29.496-5.776-3.332-8.072-6.16-9.692-12.552 1.04-2.48 1.104-3.024 2.944-5.376 15.644-19.968 173.3-36.208 204.47-38.22z" fill="#4e2a02"/>
  <path d="m3052.6 2017c-41.724-89.768-55.224-169.36-40.272-267.44 4.948-32.448 11.524-63.876 22.868-94.78 27.58-75.128 69.992-100.26 139.81-132.3 114.76-52.66 251.34-105.12 377.1-58.42 32.2 11.956 66.252 33.04 81.172 65.268 10.048 21.7 10.548 45.964 9.056 69.4-41.096-5.184-137.54-13.568-171.07 12.108-6.376 4.88-9.98 11.172-10.72 19.184-0.512 5.54 0.744 10.484 4.332 14.816 3.748 4.528 9.572 8.308 14.448 11.564l2.768 0.068c21.308 0.42 42.632-2.52 63.884-3.792 39.288-2.36 87.04 1.312 123.35 17.536 24.9 42.856 24.56 91.984 16.484 139.57-18.824-5.328-37.54-10.6-56.912-13.604-27.364-4.248-116.53-10.004-140.52 4.292-5.776 3.484-9.936 9.116-11.568 15.66-1.736 7.004-0.592 14.728 4.056 20.412 13.508 16.512 112.6 13.988 140.07 18.932 24.104 4.34 46.988 13.216 69.816 21.84 16.316 44.14 25.572 88.064 5.056 132.78-15.396 33.564-43.42 55.876-77.664 68.34-48.376 17.604-114.34 23.868-163.98 8.144-14.956-4.736-33.604-15.016-49.072-15.432-8.92-0.24-20.08 6.388-23.348 15-3.436 9.064 2.424 23.292 5.956 31.72 6.952 16.572 17.188 32.1 25.52 48.032 10.068 19.248 18.424 39.8 25.692 60.256 28.548 80.356 46.328 239.06-38.832 292.8-19.092 12.052-43.768 17.236-65.888 11.68-16.028-4.024-28.576-14.06-36.852-28.264-26.384-45.284-10.424-119.03-16.28-170.4-6.02-52.864-23.012-101.5-46.46-148.99-15.016-26.38-32.792-50.808-54.332-72.284-28.572-28.488-58.492-46.432-99.804-46.256-9.736-15.556-19.792-30.952-27.872-47.452z" fill="#feac55"/>
  <path d="m3052.6 2017c56.84-2.664 106.83 3.928 150.7 43.392 21.068 18.952 39.52 45.096 40.268 74.32 0.404 15.792-4.1 33.268-8.964 48.28-15.016-26.38-32.792-50.808-54.332-72.284-28.572-28.488-58.492-46.432-99.804-46.256-9.736-15.556-19.792-30.952-27.872-47.452z" fill="#f6940d"/>
  <path d="m1779.2 2172.8c12.976-0.896 25.528-1.952 38.392 0.736 44.916 9.384 84.092 46.776 121.48 71.472 13.12 8.672 26.308 14.976 40.288 21.956 4.964 9 6.572 17.628 8.416 27.572 37.88-4.336 75.612-4.732 113.45-8.08 20.452-1.812 42.244-7.532 62.612-6.904 8.268 74.364 15.552 151.07 16.76 225.93 2.632 69.368 4.264 138.77 4.896 208.18 2.456 56.616 1.84 113.6 1.576 170.27-0.144 30.192 1.712 62.408-1.82 92.32 0.42 59.732-2.78 119.62-4.64 179.33-59.352 5.568-118.1 15.536-177.72 18.952 2.656-77.024 6.06-154.2 6.172-231.27 0.032-1.848 0.04-3.692 0.028-5.536-0.26-32.712-10.752-66.144-35.052-89.092-78.884-74.508-281.43-68.552-385.51-66.904v-30.132l1.556-206.62c1.1-69.604 1.112-139.22 0.028-208.83 7.48-10.44 15.192-20.524 23.324-30.464 0.208-0.316 0.408-0.636 0.624-0.944 16.368-23.42 70.528-100.11 91.604-112.08 20.26-11.504 50.74-15.6 73.536-19.868z" fill="#e56e00"/>
 </g>
 <g fill="#f6940d" stroke-width="4">
  <path d="m1590.1 2545c66.96-0.88 134.13-1.824 201.06-3.924 2.184 67.444 3.516 134.91 3.996 202.39-43.372 2.364-86.772 4.148-130.19 5.344-24.968 0.728-51.724-0.476-76.42 2.812z"/>
  <path d="m2184.8 2925c-0.052 16.808-1.364 34.652 0.516 51.324 0.42 59.732-2.78 119.62-4.64 179.33-59.352 5.568-118.1 15.536-177.72 18.952 2.656-77.024 6.06-154.2 6.172-231.27 58.664-4.904 117.04-12.98 175.67-18.332z"/>
  <path d="m2000.2 2527.2c60.216-6.528 120.35-13.772 180.4-21.724 2.632 69.368 4.264 138.77 4.896 208.18-18.66 0.104-37.928 3.108-56.524 4.896-41.428 3.984-82.888 8.532-124.45 10.836-0.516-67.412-1.956-134.81-4.324-202.19z"/>
  <path d="m1613.5 2305.7c0.208-0.316 0.408-0.636 0.624-0.944 16.368-23.42 70.528-100.11 91.604-112.08 20.26-11.504 50.74-15.6 73.536-19.868-0.988 44.504 3.388 89.02 3.916 133.52-29.316 1.16-149.06 6.248-169.68-0.628z"/>
 </g>
 <g stroke-width="4">
  <path d="m1982.6 2295.1c2.348 0.608 0.804 0.032 3.988 2.936 5.236 76.236 10.164 152.88 12.48 229.27-60.968 12.648-139.5 12.832-202.44 14.652l-3.252-0.704c-0.736-1.304-1.928-2.44-2.208-3.912-2.828-14.832-0.572-43.884-1.052-60.352-1.224-57.04-3.46-114.05-6.704-171.01 66.36-3.04 133.04-4.796 199.19-10.876z" fill="#dc6000"/>
  <path d="m1660.1 2404.7c13.332-0.06 26.984 2.14 39.04 8.028 14.08 6.876 25.932 18.764 30.672 33.924 3.564 11.4 2.976 23.644-2.764 34.232-7.684 14.176-22.276 22.384-37.116 27.116-16.064 3.176-31.776 2.272-46.396-5.756-13.404-7.2-23.052-19.832-26.472-34.66-3.14-13.552-1.572-28.772 6-40.64 8.64-13.536 21.848-19.236 37.036-22.244z" fill="#4e2a02"/>
  <path d="m2652.5 1662.8c28.948-7.28 57.832-14.824 86.644-22.624-22.016 68.912-30.764 122.66-32.356 195.23 0.904 67.264 12.816 131.35 35.556 194.62 16.892 44.396 38.844 86.7 65.416 126.07-45.928 21.64-95.284 45.948-143.68 61.172-143.06 62.048-289.39 117.05-432.84 178.26-1.096-42.056-5.42-83.964-12.944-125.35-1.188-6.58-4.732-17.68-3.72-24.128-6.696-8.292-16.956-16.808-28.06-18.072-5.292-0.604-10.524 0.52-14.62 4.096-5.792 5.052-10.624 14.216-10.84 21.972-0.224 8.272 1.676 17.332 2.812 25.544-20.368-0.628-42.16 5.092-62.612 6.904-37.84 3.348-75.572 3.744-113.45 8.08-1.844-9.944-3.452-18.572-8.416-27.572 5.476 1.308 11.044 2.712 16.696 2.86 10.372 0.24 20.396-3.772 27.736-11.104 21.524-21.628 17.38-67.86 16.348-95.644-4.772-79.816-26.512-171.54-63.224-242.89 11.556-12.44 22.776-25.008 32.564-38.912 12.528-17.804 23.736-37.652 38.44-53.716 47.068-9.064 93.964-21.88 140.16-34.64 26.8-9.288 55.008-15.704 82.336-23.42l144.66-41.644c44.748-12.776 89.572-25.288 134.47-37.532 34.312-9.112 68.992-17.108 102.93-27.552z" fill="#e56e00"/>
  <path d="m2652.5 1662.8c28.948-7.28 57.832-14.824 86.644-22.624-22.016 68.912-30.764 122.66-32.356 195.23 0.904 67.264 12.816 131.35 35.556 194.62-34.256 7.548-72.128 22.956-103.67 38.432l0.132 1.956c-63.228 25.82-129.74 42.644-193.14 68.004-9.512-68.22-14.492-137.38-18.812-206.11l0.836-2.524c-1.136-31.492-4.068-183.72-12.58-201.89 44.748-12.776 89.572-25.288 134.47-37.532 34.312-9.112 68.992-17.108 102.93-27.552z" fill="#e56e00"/>
  <path d="m2427.7 1929.8c30.456-14.452 64.712-22.868 96.848-33.056 36.768-11.948 73.372-24.388 109.81-37.308-4.992 57.348-2.212 151.16 4.328 209.04l0.132 1.956c-63.228 25.82-129.74 42.644-193.14 68.004-9.512-68.22-14.492-137.38-18.812-206.11z" fill="#f6940d"/>
  <path d="m2652.5 1662.8c28.948-7.28 57.832-14.824 86.644-22.624-22.016 68.912-30.764 122.66-32.356 195.23l-1.048 2.14c-17.888 10.12-50.892 16.364-71.352 22.096 1.196-66.396 14-130.97 18.112-196.84z" fill="#dc6000"/>
 </g>
 <defs>
  <linearGradient id="gradient_2" x1="520.18" x2="576.31" y1="519.12" y2="525.26" gradientTransform="matrix(4 0 0 4 -107.07 -89.885)" gradientUnits="userSpaceOnUse">
   <stop stop-color="#DE6300" offset="0"/>
   <stop stop-color="#EF7D00" offset="1"/>
  </linearGradient>
 </defs>
 <g stroke-width="4">
  <path d="m2048 1827.6c47.068-9.064 93.964-21.88 140.16-34.64-3.192 15.596-0.348 33.188 0.784 48.996-5.28 55.868 10.36 110.14 9.924 165.3l-1.688-1.344-1.324 0.808 2.68 0.82c1.1 1.032 2.612 1.756 3.296 3.1 3.78 7.44 20.716 190.58 21.044 208.61 0.036 1.792-0.028 3.584-0.064 5.372-3.412 7.076-6.012 13.88-8.188 21.428-6.696-8.292-16.956-16.808-28.06-18.072-5.292-0.604-10.524 0.52-14.62 4.096-5.792 5.052-10.624 14.216-10.84 21.972-0.224 8.272 1.676 17.332 2.812 25.544-20.368-0.628-42.16 5.092-62.612 6.904-37.84 3.348-75.572 3.744-113.45 8.08-1.844-9.944-3.452-18.572-8.416-27.572 5.476 1.308 11.044 2.712 16.696 2.86 10.372 0.24 20.396-3.772 27.736-11.104 21.524-21.628 17.38-67.86 16.348-95.644-4.772-79.816-26.512-171.54-63.224-242.89 11.556-12.44 22.776-25.008 32.564-38.912 12.528-17.804 23.736-37.652 38.44-53.716z" fill="url(#gradient_2)"/>
  <path d="m2198.5 2007.5c1.1 1.032 2.612 1.756 3.296 3.1 3.78 7.44 20.716 190.58 21.044 208.61 0.036 1.792-0.028 3.584-0.064 5.372-3.412 7.076-6.012 13.88-8.188 21.428-6.696-8.292-16.956-16.808-28.06-18.072-5.292-0.604-10.524 0.52-14.62 4.096-5.792 5.052-10.624 14.216-10.84 21.972-0.224 8.272 1.676 17.332 2.812 25.544-20.368-0.628-42.16 5.092-62.612 6.904-37.84 3.348-75.572 3.744-113.45 8.08-1.844-9.944-3.452-18.572-8.416-27.572 5.476 1.308 11.044 2.712 16.696 2.86 10.372 0.24 20.396-3.772 27.736-11.104 21.524-21.628 17.38-67.86 16.348-95.644 2.624 0.24 5.164 0.5 7.752 1 31.756 6.136 66.644 42.392 83.696 68.444-6.608-30.004-10.552-61.104-15.868-91.412-6.252-35.644-13.768-71.02-19.996-106.66 34.328-6.072 70.272-14.064 102.74-26.94z" fill="#f6940d"/>
  <path d="m2188.1 1793c26.8-9.288 55.008-15.704 82.336-23.42l144.66-41.644c8.512 18.168 11.444 170.4 12.58 201.89l-0.836 2.524c-74.644 23.784-148.04 53.524-223.57 74.3-0.876-27.516-6.312-54.92-8.412-82.368-2.028-26.476-0.068-56.616-5.968-82.288-1.132-15.808-3.976-33.4-0.784-48.996z" fill="#dc6000"/>
  <path d="m2742.4 2030c16.892 44.396 38.844 86.7 65.416 126.07-45.928 21.64-95.284 45.948-143.68 61.172l-4.228-2.14c-9.54-15.728-17.24-119.23-21.044-144.72l-0.132-1.956c31.544-15.476 69.416-30.884 103.67-38.432z" fill="#dc6000"/>
  <path d="m1177.9 2970.1c17.316-1.38 34.772-3.28 52.152-3.112 1.764 20.036 3.28 40.008 1.816 60.116-19.948-2.98-35.34-0.356-54.796 4.132-26.012 4.084-80.348 6.688-95.96 29.624-3.836 5.632-5.428 13.868-3.372 20.504 2.02 6.524 5.98 10.76 12.064 13.612 21.636 10.136 61.48 1.068 84.86-1.604 14.664-1.808 38.228-4.928 50.456 5.18 7.94 6.564 7.92 15.544 8.38 25.088 1.624 33.92 1.16 69.908-0.532 103.84-19.492-0.924-38.856-1.556-58.38-1.492-25.804 1.424-77.576 3.592-95.76 24.632-3.28 3.796-5.764 8.784-5.356 13.932 0.512 6.42 5.28 11.576 10.344 15.008 25.096 17.016 65.816 8.22 93.708 3.484 15.408-1.848 31.3-1.376 46.756-0.252-1.264 30.272-1.644 60.576-1.14 90.876l-48.46 11.64c-24.644 4.344-49.18 10.568-73.892 15.116-13.052 2.404-38.676 5.272-45.516 18.144-2.912 5.472-2.964 13.072-1.124 18.888 2.072 6.556 7.032 10.912 13.024 13.828 40.348 19.64 115.39-4.632 155.47-17.576 0.9 14.956 1.4 29.756 1.3 44.74-26.912 27.14-76.564 50.228-112.61 62.364-111.57 37.568-195.63 13.848-298.2-35.488-32.252-15.512-59.224-30.36-95.984-30.136-2.476-47.572-1.48-97.324 5.94-144.37 14.316-90.76 65.468-207.16 141.88-262.43 60.764 16.432 106.88-44.376 157.69-64.464 50.34-19.9 101.58-28.868 155.24-33.82z" fill="#feac55"/>
 </g>
 <g fill="#f6940d" stroke-width="4">
  <path d="m1174.7 3093.4c14.664-1.808 38.228-4.928 50.456 5.18 7.94 6.564 7.92 15.544 8.38 25.088 1.624 33.92 1.16 69.908-0.532 103.84-19.492-0.924-38.856-1.556-58.38-1.492 0.652-44.2-0.668-88.408 0.076-132.61z"/>
  <path d="m1177.5 3283c15.408-1.848 31.3-1.376 46.756-0.252-1.264 30.272-1.644 60.576-1.14 90.876l-48.46 11.64c0.048-16.744 5.88-93.912 2.844-102.26z"/>
  <path d="m1177.9 2970.1c17.316-1.38 34.772-3.28 52.152-3.112 1.764 20.036 3.28 40.008 1.816 60.116-19.948-2.98-35.34-0.356-54.796 4.132-0.524-20.38-0.248-40.776 0.828-61.136z"/>
 </g>
 <defs>
  <linearGradient id="gradient_3" x1="332.85" x2="380.19" y1="910.24" y2="997.57" gradientTransform="matrix(4 0 0 4 -107.07 -89.885)" gradientUnits="userSpaceOnUse">
   <stop stop-color="#D05300" offset="0"/>
   <stop stop-color="#E58100" offset="1"/>
  </linearGradient>
 </defs>
 <g stroke-width="4">
  <path d="m1245.7 3540.5c52.924 74.812 149.37 107.28 236.68 122.38 16.976 2.804 34.08 4.804 51.248 5.988-0.036 58.656-0.904 117.31-2.608 175.94-134.9 17.34-258.52 15.572-393.35-3.804-64.408-9.42-129.21-20.368-191.92-38.04 0.884-45.64 7.56-90.64 9.232-136.1l0.276-3.036c1.884-17.196 1.316-34.776 0.664-52.04 65.692 7.852 126.46-3.232 189.51-20.652 35.784-13.292 69.916-26.856 100.27-50.636z" fill="url(#gradient_3)"/>
  <path d="m1145.5 3591.1 1.664 2.752c-0.412 0.84-0.848 1.672-1.232 2.524-5.22 11.532-7.032 91.876-2.888 103.21 5.248 29.472-0.54 109.96-5.3 141.38-64.408-9.42-129.21-20.368-191.92-38.04 0.884-45.64 7.56-90.64 9.232-136.1l0.276-3.036c1.884-17.196 1.316-34.776 0.664-52.04 65.692 7.852 126.46-3.232 189.51-20.652z" fill="#f6940d"/>
  <path d="m1145.5 3591.1 1.664 2.752c-0.412 0.84-0.848 1.672-1.232 2.524-5.22 11.532-7.032 91.876-2.888 103.21-40.596-8.548-153.5-49.056-187.72-35.792 1.884-17.196 1.316-34.776 0.664-52.04 65.692 7.852 126.46-3.232 189.51-20.652z" fill="#e56e00"/>
 </g>
 <defs>
  <linearGradient id="gradient_4" x1="467.07" x2="584.62" y1="904.48" y2="880.11" gradientTransform="matrix(4 0 0 4 -107.07 -89.885)" gradientUnits="userSpaceOnUse">
   <stop stop-color="#D75A00" offset="0"/>
   <stop stop-color="#E87800" offset="1"/>
  </linearGradient>
 </defs>
 <g stroke-width="4">
  <path d="m2002.9 3174.6c59.616-3.416 118.36-13.384 177.72-18.952l-3.984 138.68c-0.652 23.772 0.456 49.792-2.896 73.204-1.008 66.96-4.476 133.98-5.064 200.89-0.68 36.5-1.552 73.124-6.1 109.38-63.556 60.184-246.44 126.25-334.11 140.87-2.276-2.228-3.352-1.552-6.424-1.688-0.264-25.5-3.76-50.876-5.324-76.316-1.876-30.488-1.576-61.304-1.928-91.852 40.912-6.308 113.77-38.096 144.7-66.144 11.352-10.296 17.652-21.06 21.592-35.804 12.52-46.844 11-106.28 12.96-154.95z" fill="url(#gradient_4)"/>
  <path d="m2006.4 3380.7c55.7-1.82 109.95-12.856 165.24-17.092l2.172 3.944c-1.008 66.96-4.476 133.98-5.064 200.89-0.728 2.204-1.436 4.96-3.268 6.548-14.692 12.744-128.83 23.008-154.58 24.672 0.588-73.34-2.584-145.73-4.496-218.96z" fill="#f6940d"/>
  <path d="m846.7 1912.9c10.632-51.884 24.664-98.26 60.048-139.22 60.988 88.648 141.62 157.52 233.39 212.86 29.256 17.64 69.372 29.712 95.024 50.416 18.892 15.252 35.136 37.912 51.004 56.452-17.032 10.704-33.868 21.712-50.5 33.028-24.636 17.456-48.48 36.008-71.46 55.6-24.94 21.04-49.248 43.804-77.112 60.964-49.584-46.608-91.772-98.348-129.68-154.84-14.204-19.784-28.804-39.484-41.428-60.328-23.04-38.048-43.1-78.944-69.284-114.93z" fill="#f6940d"/>
 </g>
 <defs>
  <linearGradient id="gradient_5" x1="304.58" x2="283.78" y1="484.37" y2="547.98" gradientTransform="matrix(4 0 0 4 -107.07 -89.885)" gradientUnits="userSpaceOnUse">
   <stop stop-color="#D95D00" offset="0"/>
   <stop stop-color="#F28000" offset="1"/>
  </linearGradient>
 </defs>
 <g stroke-width="4">
  <path d="m846.7 1912.9c10.632-51.884 24.664-98.26 60.048-139.22 60.988 88.648 141.62 157.52 233.39 212.86 29.256 17.64 69.372 29.712 95.024 50.416 18.892 15.252 35.136 37.912 51.004 56.452-17.032 10.704-33.868 21.712-50.5 33.028-10.292-19.18-13.88-43.692-18.084-64.892-64.98-28.24-128.18-60.42-189.25-96.356-30.292 36.284-42.612 85.252-70.924 122.97-14.204-19.784-28.804-39.484-41.428-60.328-23.04-38.048-43.1-78.944-69.284-114.93z" fill="url(#gradient_5)"/>
  <path d="m629.65 1138.7c37.456-0.196 76.5 6.604 108.59 26.872 18.756 11.848 36.288 28.936 46.224 48.908 23.972 48.176 33.656 181.87 47.82 243.84-24.776 20.488-48.26 37.172-80.872 41.464-34.976 5.1-67.66-1.564-97.992-19.692-52.312-31.272-85.828-87.3-100.2-145.49-12.016-48.656-11.18-104.25 15.7-148.08 13.624-22.212 34.92-41.804 60.732-47.828z" fill="#f6940d"/>
  <path d="m647.96 1228.2c0.876-0.016 1.752-0.044 2.628-0.048 28.888-0.064 62.98 13.688 83.084 34.32 17.476 17.932 29.768 48.2 28.492 73.632-0.404 8.132-2.724 16.056-9.128 21.472-6.008 5.08-11.156 5.056-18.556 4.436-24.596-15.248-30.564-46.584-55.168-60.144-11.976-6.6-26.748-8.496-39.648-12.864-8.628-2.92-17.432-7.732-21.064-16.596-3.212-7.848-2.5-18.316 1.536-25.668 5.6-10.2 17.392-15.116 27.824-18.54z" fill="#4e2a02"/>
  <path d="m2765 1801.6c66.32-16.944 119.1-28.144 186.65-38.48-1.148 18.696-2.6 37.432-3.176 56.156-0.232 53.424 8.44 106.52 25.652 157.1 9.824 25.452 19.94 50.76 34.3 74.08 11.332 18.396 25.44 35.568 35.664 54.544-55.276 33.972-74.812 45.912-139.9 49.84-7.168-0.504-14.74-1.756-21.312-4.76-36.172-16.544-65.584-82.616-79.5-118.32-31.792-71.716-43.748-152.17-38.376-230.15z" fill="#f6940d"/>
  <path d="m2974.1 1976.3c9.824 25.452 19.94 50.76 34.3 74.08 11.332 18.396 25.44 35.568 35.664 54.544-55.276 33.972-74.812 45.912-139.9 49.84-7.168-0.504-14.74-1.756-21.312-4.76-36.172-16.544-65.584-82.616-79.5-118.32 31.636-5.352 83.792-27.832 116.06-39.104l2.132-1.156c16.684-6.532 34.872-12.156 52.552-15.12z" fill="#dc6000"/>
 </g>
 <g fill="#e56e00" stroke-width="4">
  <path d="m2803.3 2031.7c31.636-5.352 83.792-27.832 116.06-39.104-2.204 37.568-5.28 75.076-9.224 112.5-1.648 16.268-2.224 33.844-6.028 49.688-7.168-0.504-14.74-1.756-21.312-4.76-36.172-16.544-65.584-82.616-79.5-118.32z"/>
  <path d="m2921.5 1991.5c2.104-7.012 3.16-14.228 4.084-21.48 3.78-29.64 3.516-59.876 8.176-89.404 3.352-21.22 13.34-39.776 14.64-61.332-0.232 53.424 8.44 106.52 25.652 157.1-17.68 2.964-35.868 8.588-52.552 15.12z"/>
  <path d="m721.83 3541.2 14.632-7.484c64.524 37.592 145.49 69.352 219.5 78.024 0.652 17.264 1.22 34.844-0.664 52.04l-0.276 3.036c-1.672 45.46-8.348 90.46-9.232 136.1-74.636-17.824-156.31-47.076-226.24-79.296-18.58-7.992-36.492-17.452-53.568-28.292-11.188-43.032-10.516-99.856-4.552-144.16 21.412-0.96 40.208-2.004 60.404-9.972z"/>
 </g>
 <g stroke-width="4">
  <path d="m721.83 3541.2 14.632-7.484c64.524 37.592 145.49 69.352 219.5 78.024 0.652 17.264 1.22 34.844-0.664 52.04l-0.276 3.036c-26.236 3.572-53.376 3.312-79.82 4.176-50.288 1.644-102.11 2.944-152.08 8.62-1.8-26.244-0.116-52.596-0.7-78.884 0.764-18.704 4.284-41.384-0.588-59.528z" fill="#dc6000"/>
  <path d="m721.83 3541.2c4.872 18.144 1.352 40.824 0.588 59.528-12.652 18.068 8.72 103.3-2.872 122.89-18.58-7.992-36.492-17.452-53.568-28.292-11.188-43.032-10.516-99.856-4.552-144.16 21.412-0.96 40.208-2.004 60.404-9.972z" fill="#f6940d"/>
  <path d="m731.44 2983.9c29.576 15.076 58.88 29.1 85.44 49.22-12.744 10.984-25.904 21.712-37.932 33.472-60.184 67.412-92.768 147.77-111.48 235.2-43.156-14.82-85.988-32.604-129.41-46.168 28.532-90.684 71.484-180.82 148.66-240.03 14.464-11.268 29.528-21.468 44.724-31.7z" fill="#f6940d"/>
  <path d="m731.44 2983.9c29.576 15.076 58.88 29.1 85.44 49.22-12.744 10.984-25.904 21.712-37.932 33.472-13-12.756-70.34-35.044-92.232-50.992 14.464-11.268 29.528-21.468 44.724-31.7z" fill="#dc6000"/>
  <path d="m1595 3674c74.668 1.344 147.54-5.836 219.84-25.184 0.352 30.548 0.052 61.364 1.928 91.852 1.564 25.44 5.06 50.816 5.324 76.316 3.072 0.136 4.148-0.54 6.424 1.688-8.84 3.928-21.724 5.26-31.296 7.312-64.256 13.776-128.67 21.484-194.41 20.04-9.804-56.836-7.996-114.59-7.812-172.02z" fill="#f6940d"/>
  <path d="m2834 1586.9c24.172-4.88 48.608-8.364 72.804-13.208 38.884-7.784 78.116-17.396 117.74-20.22-8.864 16.004-19.436 30.98-27.964 47.24-26.756 51.02-38 105.8-44.96 162.42-67.552 10.336-120.33 21.536-186.65 38.48 0.8-70.204 30.768-156.27 69.032-214.71z" fill="#e56e00"/>
  <path d="m1613.6 2085.4c34.276-4.628 67.836-10.316 101.34-18.996-23.844 38.548-46.896 77.352-74.624 113.3-20.636 28.596-44.676 53.104-70.816 76.588-62.416-35.848-115.02-85.22-169.28-131.66-16.128-13.804-37.216-27.944-49.98-44.596l1.536-2.712c14.94-1.472 63.852 8.972 84.168 10.764 59.172 4.74 118.66 3.84 177.66-2.688z" fill="#f6940d"/>
  <path d="m1613.6 2085.4c34.276-4.628 67.836-10.316 101.34-18.996-23.844 38.548-46.896 77.352-74.624 113.3-0.112-0.312-0.212-0.632-0.34-0.94-6.168-14.668-5.092-30.7-7.032-46.304-2.02-16.224-6.084-29.724-12.28-44.812z" fill="#e56e00"/>
 </g>
 <defs>
  <linearGradient id="gradient_6" x1="184.96" x2="165.17" y1="896.65" y2="836.3" gradientTransform="matrix(4 0 0 4 -107.07 -89.885)" gradientUnits="userSpaceOnUse">
   <stop stop-color="#DC6800" offset="0"/>
   <stop stop-color="#ED8500" offset="1"/>
  </linearGradient>
 </defs>
 <g stroke-width="4">
  <path d="m538.06 3255.6c43.42 13.564 86.252 31.348 129.41 46.168-9.864 64.68-8.56 129.34-8.448 194.58-37.98-11.496-112.62-43.336-146.02-64.804 0.648-59.088 11.828-118.57 25.064-175.95z" fill="url(#gradient_6)"/>
  <path d="m1874.8 2000.6c17.964-12.144 36.288-24.08 53.44-37.356 32.076 71.404 50.284 159.01 51.476 237.15-35.952-19.292-68.608-46.224-102.42-69.016-26.992-12.588-58.888-27.312-89.548-22.268-12.344 2.028-24.48 7.068-36.788 9.832l-0.896-1.788c4.752-12.348 12.496-23.792 19.256-35.14 6.776-11.376 13.224-23.464 22.652-32.912 17.692-17.728 59.612-34.992 82.828-48.5z" fill="#e56e00"/>
  <path d="m1874.8 2000.6c0.124 18.924 10.22 121.91 4.02 129.44-0.432 0.52-1.016 0.888-1.524 1.336-26.992-12.588-58.888-27.312-89.548-22.268-12.344 2.028-24.48 7.068-36.788 9.832l-0.896-1.788c4.752-12.348 12.496-23.792 19.256-35.14 6.776-11.376 13.224-23.464 22.652-32.912 17.692-17.728 59.612-34.992 82.828-48.5z" fill="#f6940d"/>
  <path d="m1987.5 499.74 17.64 8.86c39.224 59.24 50.224 123.92 40.808 193.91-2.196-2.416-4.144-4.764-5.684-7.66-11.684-21.992-16.3-50.672-24.028-74.584-9.756-30.188-24.096-61.016-29.452-92.368-1.66-9.72-1.74-18.62 0.716-28.156z" fill="#77460f"/>
 </g>
</svg>
